<svg width="169" height="67" viewBox="0 0 169 67" fill="none" xmlns="http://www.w3.org/2000/svg">
<path d="M151.66 19L154.052 9.51H156.145L158.55 19H156.886L156.366 16.699H153.844L153.324 19H151.66ZM154.143 15.373H156.067L155.495 12.825C155.4 12.4003 155.317 12.019 155.248 11.681C155.179 11.3343 155.131 11.083 155.105 10.927C155.079 11.083 155.031 11.3343 154.962 11.681C154.901 12.019 154.819 12.396 154.715 12.812L154.143 15.373ZM160.17 19V17.57H162.081V10.94H160.17V9.51H165.63V10.94H163.719V17.57H165.63V19H160.17Z" fill="#EC4B2B"/>
<path d="M19.76 66.65C16.7267 66.65 14.0617 66.0867 11.765 64.96C9.51167 63.79 7.75667 62.165 6.5 60.085C5.28667 57.9617 4.68 55.47 4.68 52.61V31.94C4.68 29.0367 5.28667 26.545 6.5 24.465C7.75667 22.385 9.51167 20.7817 11.765 19.655C14.0617 18.485 16.7267 17.9 19.76 17.9C22.8367 17.9 25.48 18.485 27.69 19.655C29.9433 20.7817 31.6983 22.385 32.955 24.465C34.2117 26.545 34.84 29.0367 34.84 31.94H26.65C26.65 29.6867 26.0433 27.975 24.83 26.805C23.66 25.635 21.97 25.05 19.76 25.05C17.55 25.05 15.8383 25.635 14.625 26.805C13.4117 27.975 12.805 29.665 12.805 31.875V52.61C12.805 54.82 13.4117 56.5317 14.625 57.745C15.8383 58.9583 17.55 59.565 19.76 59.565C21.97 59.565 23.66 58.9583 24.83 57.745C26.0433 56.5317 26.65 54.82 26.65 52.61V47.8H18.59V40.78H34.84V52.61C34.84 55.47 34.2117 57.9617 32.955 60.085C31.6983 62.165 29.9433 63.79 27.69 64.96C25.48 66.0867 22.8367 66.65 19.76 66.65ZM82.8892 66V18.55H97.9042C101.068 18.55 103.798 19.135 106.094 20.305C108.434 21.475 110.254 23.1217 111.554 25.245C112.854 27.325 113.504 29.795 113.504 32.655C113.504 35.775 112.703 38.5267 111.099 40.91C109.539 43.2933 107.416 44.9833 104.729 45.98L114.154 66H105.054L96.7992 47.15H91.0142V66H82.8892ZM91.0142 40H97.9042C100.201 40 101.999 39.3717 103.299 38.115C104.599 36.8583 105.249 35.125 105.249 32.915C105.249 30.6617 104.599 28.9067 103.299 27.65C101.999 26.35 100.201 25.7 97.9042 25.7H91.0142V40Z" fill="white"/>
<path d="M58.4746 66.65C53.9246 66.65 50.3496 65.3933 47.7496 62.88C45.1496 60.3233 43.8496 56.8567 43.8496 52.48V30.25H51.9746V52.415C51.9746 54.7117 52.5379 56.4883 53.6646 57.745C54.7913 58.9583 56.3946 59.565 58.4746 59.565C60.5113 59.565 62.0929 58.9583 63.2196 57.745C64.3896 56.4883 64.9746 54.7117 64.9746 52.415V30.25H73.0996V52.48C73.0996 56.8567 71.7779 60.3233 69.1346 62.88C66.4913 65.3933 62.9379 66.65 58.4746 66.65ZM136.424 66.65C131.874 66.65 128.299 65.3933 125.699 62.88C123.099 60.3233 121.799 56.8567 121.799 52.48V30.25H129.924V52.415C129.924 54.7117 130.487 56.4883 131.614 57.745C132.74 58.9583 134.344 59.565 136.424 59.565C138.46 59.565 140.042 58.9583 141.169 57.745C142.339 56.4883 142.924 54.7117 142.924 52.415V30.25H151.049V52.48C151.049 56.8567 149.727 60.3233 147.084 62.88C144.44 65.3933 140.887 66.65 136.424 66.65Z" fill="#EC4B2B"/>
<path d="M19.76 66.65C16.7267 66.65 14.0617 66.0867 11.765 64.96C9.51167 63.79 7.75667 62.165 6.5 60.085C5.28667 57.9617 4.68 55.47 4.68 52.61V31.94C4.68 29.0367 5.28667 26.545 6.5 24.465C7.75667 22.385 9.51167 20.7817 11.765 19.655C14.0617 18.485 16.7267 17.9 19.76 17.9C22.8367 17.9 25.48 18.485 27.69 19.655C29.9433 20.7817 31.6983 22.385 32.955 24.465C34.2117 26.545 34.84 29.0367 34.84 31.94H26.65C26.65 29.6867 26.0433 27.975 24.83 26.805C23.66 25.635 21.97 25.05 19.76 25.05C17.55 25.05 15.8383 25.635 14.625 26.805C13.4117 27.975 12.805 29.665 12.805 31.875V52.61C12.805 54.82 13.4117 56.5317 14.625 57.745C15.8383 58.9583 17.55 59.565 19.76 59.565C21.97 59.565 23.66 58.9583 24.83 57.745C26.0433 56.5317 26.65 54.82 26.65 52.61V47.8H18.59V40.78H34.84V52.61C34.84 55.47 34.2117 57.9617 32.955 60.085C31.6983 62.165 29.9433 63.79 27.69 64.96C25.48 66.0867 22.8367 66.65 19.76 66.65ZM58.4746 66.65C53.9246 66.65 50.3496 65.3933 47.7496 62.88C45.1496 60.3233 43.8496 56.8567 43.8496 52.48V30.25H51.9746V52.415C51.9746 54.7117 52.5379 56.4883 53.6646 57.745C54.7913 58.9583 56.3946 59.565 58.4746 59.565C60.5113 59.565 62.0929 58.9583 63.2196 57.745C64.3896 56.4883 64.9746 54.7117 64.9746 52.415V30.25H73.0996V52.48C73.0996 56.8567 71.7779 60.3233 69.1346 62.88C66.4913 65.3933 62.9379 66.65 58.4746 66.65Z" fill="white"/>
<path d="M82.8892 66V18.55H97.9042C101.068 18.55 103.798 19.135 106.094 20.305C108.434 21.475 110.254 23.1217 111.554 25.245C112.854 27.325 113.504 29.795 113.504 32.655C113.504 35.775 112.703 38.5267 111.099 40.91C109.539 43.2933 107.416 44.9833 104.729 45.98L114.154 66H105.054L96.7992 47.15H91.0142V66H82.8892ZM91.0142 40H97.9042C100.201 40 101.999 39.3717 103.299 38.115C104.599 36.8583 105.249 35.125 105.249 32.915C105.249 30.6617 104.599 28.9067 103.299 27.65C101.999 26.35 100.201 25.7 97.9042 25.7H91.0142V40Z" fill="#E94B29"/>
<path d="M136.424 66.65C131.874 66.65 128.299 65.3933 125.699 62.88C123.099 60.3233 121.799 56.8567 121.799 52.48V30.25H129.924V52.415C129.924 54.7117 130.487 56.4883 131.614 57.745C132.74 58.9583 134.344 59.565 136.424 59.565C138.46 59.565 140.042 58.9583 141.169 57.745C142.339 56.4883 142.924 54.7117 142.924 52.415V30.25H151.049V52.48C151.049 56.8567 149.727 60.3233 147.084 62.88C144.44 65.3933 140.887 66.65 136.424 66.65Z" fill="#EC4B2B"/>
</svg>
